<svg width="216" height="63" viewBox="0 0 216 63" fill="none" xmlns="http://www.w3.org/2000/svg">
<g clip-path="url(#clip0_1_8)">
<path d="M0 6H57V63" stroke="#FFED00" stroke-width="12" stroke-miterlimit="10"/>
<path d="M77.17 37.53C76.94 37.3 76.82 37.03 76.82 36.72V6.59C76.82 6.25 76.93 5.96 77.14 5.73C77.36 5.5 77.63 5.38 77.98 5.38H91.12C95.14 5.38 98.3 6.29 100.59 8.12C102.88 9.95 104.03 12.62 104.03 16.15C104.03 19.68 102.88 22.32 100.59 24.06C98.3 25.81 95.14 26.68 91.12 26.68H85.83V36.71C85.83 37.02 85.72 37.29 85.5 37.52C85.28 37.75 85 37.87 84.66 37.87H77.98C77.67 37.87 77.4 37.75 77.17 37.52V37.53ZM90.89 20.05C92.16 20.05 93.16 19.72 93.88 19.05C94.61 18.38 94.97 17.4 94.97 16.1C94.97 14.89 94.64 13.92 93.97 13.18C93.3 12.44 92.28 12.07 90.88 12.07H85.68V20.05H90.88H90.89Z" fill="#DADADA"/>
<path d="M111.4 35.14C108.86 33 107.52 29.86 107.36 25.72C107.33 24.85 107.31 23.52 107.31 21.73C107.31 19.94 107.33 18.59 107.36 17.69C107.48 13.61 108.84 10.46 111.42 8.24001C114 6.03001 117.46 4.92001 121.8 4.92001C126.14 4.92001 129.54 6.03001 132.13 8.24001C134.71 10.45 136.07 13.6 136.19 17.69C136.25 19.49 136.28 20.83 136.28 21.73C136.28 22.63 136.25 23.99 136.19 25.72C136.03 29.87 134.7 33.01 132.17 35.14C129.65 37.28 126.19 38.34 121.79 38.34C117.39 38.34 113.93 37.27 111.39 35.14H111.4ZM125.65 29.92C126.61 28.95 127.12 27.45 127.18 25.44C127.24 23.65 127.27 22.36 127.27 21.59C127.27 20.82 127.24 19.56 127.18 17.83C127.12 15.82 126.61 14.33 125.65 13.35C124.69 12.38 123.41 11.89 121.8 11.89C120.19 11.89 118.86 12.38 117.9 13.35C116.94 14.33 116.43 15.82 116.37 17.83C116.34 18.7 116.32 19.95 116.32 21.59C116.32 23.23 116.34 24.55 116.37 25.44C116.43 27.45 116.94 28.94 117.9 29.92C118.86 30.9 120.16 31.38 121.8 31.38C123.44 31.38 124.69 30.89 125.65 29.92Z" fill="#DADADA"/>
<path d="M141.88 37.53C141.65 37.3 141.53 37.03 141.53 36.72V6.54C141.53 6.2 141.65 5.92 141.88 5.7C142.11 5.48 142.38 5.38 142.69 5.38H149.33C149.67 5.38 149.95 5.49 150.17 5.7C150.39 5.92 150.49 6.2 150.49 6.54V36.71C150.49 37.02 150.38 37.29 150.17 37.52C149.95 37.75 149.67 37.87 149.33 37.87H142.69C142.38 37.87 142.11 37.75 141.88 37.52V37.53Z" fill="#DADADA"/>
<path d="M157.15 37.53C156.92 37.3 156.8 37.03 156.8 36.72V6.59C156.8 6.25 156.91 5.96 157.12 5.73C157.34 5.5 157.61 5.38 157.96 5.38H163.21C163.92 5.38 164.45 5.67001 164.79 6.26L175.75 23.57V6.59C175.75 6.25 175.86 5.96 176.08 5.73C176.3 5.5 176.57 5.38 176.91 5.38H182.81C183.15 5.38 183.43 5.5 183.65 5.73C183.87 5.96 183.98 6.25 183.98 6.59V36.67C183.98 37.01 183.87 37.3 183.65 37.53C183.43 37.76 183.15 37.88 182.81 37.88H177.56C176.85 37.88 176.32 37.59 175.98 37L165.07 20.38V36.72C165.07 37.06 164.95 37.34 164.72 37.56C164.49 37.78 164.2 37.88 163.86 37.88H157.96C157.65 37.88 157.38 37.76 157.15 37.53Z" fill="#DADADA"/>
<path d="M197.77 37.55C197.54 37.33 197.42 37.05 197.42 36.71V12.95H189.25C188.91 12.95 188.62 12.84 188.39 12.63C188.16 12.41 188.04 12.13 188.04 11.79V6.59C188.04 6.25 188.16 5.96 188.39 5.73C188.62 5.5 188.91 5.38 189.25 5.38H214.46C214.8 5.38 215.09 5.5 215.32 5.73C215.55 5.96 215.67 6.25 215.67 6.59V11.79C215.67 12.13 215.55 12.41 215.32 12.63C215.09 12.85 214.8 12.95 214.46 12.95H206.29V36.72C206.29 37.06 206.17 37.34 205.94 37.56C205.71 37.78 205.42 37.88 205.08 37.88H198.63C198.29 37.88 198 37.77 197.77 37.56V37.55Z" fill="#DADADA"/>
<path d="M76.07 56.85C75.09 56.02 74.57 54.81 74.51 53.21C74.5 52.89 74.49 52.36 74.49 51.63C74.49 50.9 74.49 50.35 74.51 50.01C74.57 48.45 75.09 47.25 76.09 46.4C77.08 45.55 78.42 45.13 80.11 45.13C81.18 45.13 82.13 45.3 82.98 45.65C83.83 46 84.49 46.5 84.99 47.16C85.48 47.82 85.74 48.6 85.76 49.5C85.76 49.61 85.72 49.7 85.64 49.77C85.56 49.84 85.47 49.88 85.36 49.88H82.8C82.63 49.88 82.51 49.85 82.43 49.78C82.35 49.71 82.28 49.59 82.22 49.41C82.05 48.82 81.8 48.41 81.45 48.18C81.1 47.95 80.66 47.83 80.09 47.83C78.73 47.83 78.03 48.59 77.98 50.1C77.97 50.42 77.96 50.92 77.96 51.59C77.96 52.26 77.96 52.77 77.98 53.12C78.03 54.63 78.73 55.39 80.09 55.39C80.64 55.39 81.09 55.27 81.45 55.03C81.8 54.79 82.06 54.38 82.22 53.81C82.27 53.63 82.33 53.51 82.42 53.44C82.5 53.37 82.63 53.34 82.8 53.34H85.36C85.47 53.34 85.56 53.38 85.64 53.45C85.72 53.52 85.76 53.61 85.76 53.72C85.74 54.62 85.48 55.4 84.99 56.06C84.5 56.72 83.83 57.22 82.98 57.57C82.13 57.92 81.18 58.09 80.11 58.09C78.39 58.09 77.05 57.68 76.07 56.85Z" fill="white"/>
<path d="M88.78 56.85C87.8 56.02 87.27 54.8 87.21 53.2C87.2 52.86 87.19 52.35 87.19 51.65C87.19 50.95 87.19 50.43 87.21 50.08C87.26 48.5 87.78 47.28 88.79 46.42C89.79 45.56 91.13 45.13 92.81 45.13C94.49 45.13 95.81 45.56 96.81 46.42C97.81 47.28 98.34 48.5 98.39 50.08C98.41 50.78 98.43 51.3 98.43 51.65C98.43 52 98.42 52.53 98.39 53.2C98.33 54.81 97.81 56.03 96.83 56.85C95.85 57.68 94.51 58.09 92.81 58.09C91.11 58.09 89.76 57.68 88.78 56.85ZM94.31 54.83C94.68 54.45 94.88 53.87 94.9 53.09C94.92 52.39 94.94 51.9 94.94 51.6C94.94 51.3 94.93 50.81 94.9 50.14C94.88 49.36 94.68 48.78 94.31 48.4C93.94 48.02 93.44 47.83 92.82 47.83C92.2 47.83 91.68 48.02 91.31 48.4C90.94 48.78 90.74 49.36 90.72 50.14C90.71 50.48 90.7 50.96 90.7 51.6C90.7 52.24 90.7 52.75 90.72 53.09C90.74 53.87 90.94 54.45 91.31 54.83C91.68 55.21 92.19 55.4 92.82 55.4C93.45 55.4 93.94 55.21 94.31 54.83Z" fill="white"/>
<path d="M100.6 57.77C100.51 57.68 100.46 57.57 100.46 57.45V45.77C100.46 45.64 100.5 45.53 100.59 45.44C100.67 45.35 100.78 45.3 100.91 45.3H102.94C103.22 45.3 103.42 45.41 103.55 45.64L107.8 52.35V45.76C107.8 45.63 107.84 45.52 107.93 45.43C108.01 45.34 108.12 45.29 108.25 45.29H110.54C110.67 45.29 110.78 45.33 110.86 45.43C110.94 45.52 110.99 45.63 110.99 45.76V57.42C110.99 57.55 110.95 57.66 110.86 57.75C110.78 57.84 110.67 57.88 110.54 57.88H108.51C108.23 57.88 108.03 57.77 107.9 57.54L103.67 51.1V57.44C103.67 57.57 103.63 57.68 103.54 57.76C103.45 57.84 103.34 57.89 103.21 57.89H100.92C100.8 57.89 100.7 57.85 100.61 57.76L100.6 57.77Z" fill="white"/>
<path d="M115.24 57.59C114.42 57.25 113.81 56.81 113.39 56.26C112.97 55.71 112.75 55.11 112.72 54.46C112.72 54.35 112.76 54.26 112.84 54.19C112.92 54.12 113.01 54.08 113.12 54.08H115.51C115.65 54.08 115.77 54.1 115.86 54.15C115.95 54.2 116.05 54.28 116.16 54.4C116.32 54.69 116.56 54.92 116.89 55.11C117.22 55.3 117.66 55.39 118.21 55.39C118.86 55.39 119.36 55.29 119.7 55.09C120.05 54.89 120.22 54.62 120.22 54.27C120.22 54.02 120.13 53.81 119.95 53.65C119.77 53.49 119.48 53.34 119.09 53.22C118.69 53.09 118.12 52.95 117.38 52.8C115.93 52.51 114.84 52.07 114.12 51.49C113.4 50.91 113.04 50.06 113.04 48.97C113.04 48.23 113.25 47.56 113.66 46.98C114.07 46.4 114.66 45.94 115.42 45.62C116.18 45.3 117.07 45.13 118.08 45.13C119.09 45.13 120.05 45.31 120.83 45.68C121.6 46.05 122.2 46.5 122.61 47.05C123.02 47.6 123.24 48.13 123.27 48.66C123.27 48.77 123.23 48.86 123.16 48.94C123.09 49.02 123 49.06 122.89 49.06H120.37C120.11 49.06 119.9 48.95 119.76 48.74C119.69 48.49 119.5 48.28 119.2 48.1C118.9 47.93 118.53 47.84 118.08 47.84C117.58 47.84 117.19 47.93 116.91 48.11C116.63 48.29 116.5 48.55 116.5 48.9C116.5 49.25 116.68 49.52 117.04 49.72C117.4 49.92 118.07 50.12 119.06 50.32C120.19 50.52 121.09 50.78 121.75 51.09C122.41 51.4 122.91 51.79 123.23 52.28C123.55 52.77 123.71 53.38 123.71 54.13C123.71 54.95 123.48 55.65 123.01 56.25C122.54 56.85 121.89 57.31 121.07 57.63C120.25 57.95 119.29 58.11 118.23 58.11C117.07 58.11 116.08 57.94 115.26 57.61L115.24 57.59Z" fill="white"/>
<path d="M128.21 57.78C128.12 57.7 128.08 57.59 128.08 57.46V48.24H124.91C124.78 48.24 124.67 48.2 124.58 48.11C124.49 48.02 124.45 47.92 124.45 47.79V45.77C124.45 45.64 124.49 45.53 124.58 45.44C124.67 45.35 124.78 45.3 124.91 45.3H134.68C134.81 45.3 134.92 45.34 135.01 45.44C135.1 45.53 135.15 45.64 135.15 45.77V47.79C135.15 47.92 135.11 48.03 135.01 48.11C134.92 48.19 134.81 48.24 134.68 48.24H131.51V57.46C131.51 57.59 131.47 57.7 131.38 57.78C131.29 57.86 131.18 57.91 131.05 57.91H128.55C128.42 57.91 128.31 57.87 128.22 57.78H128.21Z" fill="white"/>
<path d="M136.87 57.77C136.78 57.68 136.73 57.57 136.73 57.45V45.77C136.73 45.64 136.77 45.53 136.86 45.44C136.94 45.35 137.05 45.3 137.18 45.3H142.13C143.71 45.3 144.95 45.66 145.85 46.38C146.75 47.1 147.19 48.11 147.19 49.42C147.19 50.26 146.99 50.97 146.61 51.56C146.23 52.15 145.68 52.6 145 52.93L147.43 57.32C147.47 57.39 147.48 57.46 147.48 57.52C147.48 57.62 147.44 57.7 147.37 57.78C147.3 57.86 147.21 57.9 147.1 57.9H144.56C144.21 57.9 143.97 57.74 143.82 57.41L141.84 53.5H140.11V57.44C140.11 57.57 140.07 57.68 139.97 57.76C139.88 57.84 139.77 57.89 139.64 57.89H137.17C137.05 57.89 136.95 57.85 136.86 57.76L136.87 57.77ZM142.12 50.87C142.64 50.87 143.03 50.74 143.3 50.48C143.57 50.22 143.71 49.86 143.71 49.41C143.71 48.96 143.57 48.59 143.3 48.31C143.03 48.03 142.64 47.9 142.12 47.9H140.12V50.87H142.12Z" fill="white"/>
<path d="M150.58 56.85C149.61 56.02 149.13 54.78 149.13 53.12V45.78C149.13 45.65 149.17 45.54 149.26 45.45C149.34 45.36 149.45 45.31 149.58 45.31H152.05C152.18 45.31 152.29 45.35 152.38 45.45C152.47 45.54 152.51 45.65 152.51 45.78V53.09C152.51 53.83 152.69 54.39 153.04 54.76C153.39 55.13 153.9 55.32 154.56 55.32C155.22 55.32 155.73 55.13 156.08 54.75C156.43 54.37 156.61 53.82 156.61 53.08V45.77C156.61 45.64 156.66 45.53 156.75 45.44C156.84 45.35 156.95 45.3 157.08 45.3H159.53C159.66 45.3 159.77 45.34 159.86 45.44C159.95 45.53 160 45.64 160 45.77V53.11C160 54.77 159.52 56.01 158.56 56.84C157.6 57.67 156.27 58.08 154.58 58.08C152.89 58.08 151.54 57.67 150.58 56.84V56.85Z" fill="white"/>
<path d="M163.53 56.85C162.55 56.02 162.03 54.81 161.97 53.21C161.96 52.89 161.95 52.36 161.95 51.63C161.95 50.9 161.95 50.35 161.97 50.01C162.03 48.45 162.55 47.25 163.55 46.4C164.54 45.55 165.88 45.13 167.57 45.13C168.64 45.13 169.59 45.3 170.44 45.65C171.29 46 171.95 46.5 172.45 47.16C172.94 47.82 173.2 48.6 173.22 49.5C173.22 49.61 173.18 49.7 173.1 49.77C173.02 49.84 172.93 49.88 172.82 49.88H170.26C170.09 49.88 169.97 49.85 169.89 49.78C169.81 49.71 169.74 49.59 169.68 49.41C169.51 48.82 169.26 48.41 168.91 48.18C168.56 47.95 168.12 47.83 167.55 47.83C166.19 47.83 165.49 48.59 165.44 50.1C165.43 50.42 165.42 50.92 165.42 51.59C165.42 52.26 165.42 52.77 165.44 53.12C165.49 54.63 166.19 55.39 167.55 55.39C168.1 55.39 168.55 55.27 168.91 55.03C169.26 54.79 169.52 54.38 169.68 53.81C169.73 53.63 169.79 53.51 169.88 53.44C169.96 53.37 170.09 53.34 170.26 53.34H172.82C172.93 53.34 173.02 53.38 173.1 53.45C173.18 53.52 173.22 53.61 173.22 53.72C173.2 54.62 172.94 55.4 172.45 56.06C171.96 56.72 171.29 57.22 170.44 57.57C169.59 57.92 168.64 58.09 167.57 58.09C165.85 58.09 164.51 57.68 163.53 56.85Z" fill="white"/>
<path d="M177.96 57.78C177.87 57.7 177.83 57.59 177.83 57.46V48.24H174.66C174.53 48.24 174.42 48.2 174.33 48.11C174.24 48.02 174.2 47.92 174.2 47.79V45.77C174.2 45.64 174.24 45.53 174.33 45.44C174.42 45.35 174.53 45.3 174.66 45.3H184.43C184.56 45.3 184.67 45.34 184.76 45.44C184.85 45.53 184.9 45.64 184.9 45.77V47.79C184.9 47.92 184.86 48.03 184.76 48.11C184.67 48.19 184.56 48.24 184.43 48.24H181.26V57.46C181.26 57.59 181.22 57.7 181.13 57.78C181.04 57.86 180.93 57.91 180.8 57.91H178.3C178.17 57.91 178.06 57.87 177.97 57.78H177.96Z" fill="white"/>
<path d="M186.62 57.77C186.53 57.68 186.48 57.57 186.48 57.45V45.75C186.48 45.62 186.52 45.51 186.62 45.43C186.71 45.35 186.81 45.3 186.93 45.3H189.5C189.63 45.3 189.74 45.34 189.82 45.43C189.9 45.51 189.95 45.62 189.95 45.75V57.45C189.95 57.57 189.91 57.68 189.82 57.77C189.74 57.86 189.63 57.9 189.5 57.9H186.93C186.81 57.9 186.71 57.86 186.62 57.77Z" fill="white"/>
<path d="M193.6 56.85C192.62 56.02 192.09 54.8 192.03 53.2C192.02 52.86 192.01 52.35 192.01 51.65C192.01 50.95 192.01 50.43 192.03 50.08C192.08 48.5 192.6 47.28 193.61 46.42C194.61 45.56 195.95 45.13 197.63 45.13C199.31 45.13 200.63 45.56 201.63 46.42C202.63 47.28 203.16 48.5 203.21 50.08C203.23 50.78 203.25 51.3 203.25 51.65C203.25 52 203.24 52.53 203.21 53.2C203.15 54.81 202.63 56.03 201.65 56.85C200.67 57.68 199.33 58.09 197.63 58.09C195.93 58.09 194.58 57.68 193.6 56.85ZM199.13 54.83C199.5 54.45 199.7 53.87 199.72 53.09C199.74 52.39 199.76 51.9 199.76 51.6C199.76 51.3 199.75 50.81 199.72 50.14C199.7 49.36 199.5 48.78 199.13 48.4C198.76 48.02 198.26 47.83 197.64 47.83C197.02 47.83 196.5 48.02 196.13 48.4C195.76 48.78 195.56 49.36 195.54 50.14C195.53 50.48 195.52 50.96 195.52 51.6C195.52 52.24 195.52 52.75 195.54 53.09C195.56 53.87 195.76 54.45 196.13 54.83C196.5 55.21 197.01 55.4 197.64 55.4C198.27 55.4 198.76 55.21 199.13 54.83Z" fill="white"/>
<path d="M205.41 57.77C205.32 57.68 205.27 57.57 205.27 57.45V45.77C205.27 45.64 205.31 45.53 205.4 45.44C205.48 45.35 205.59 45.3 205.72 45.3H207.75C208.03 45.3 208.23 45.41 208.36 45.64L212.61 52.35V45.76C212.61 45.63 212.65 45.52 212.74 45.43C212.82 45.34 212.93 45.29 213.06 45.29H215.35C215.48 45.29 215.59 45.33 215.67 45.43C215.75 45.52 215.8 45.63 215.8 45.76V57.42C215.8 57.55 215.76 57.66 215.67 57.75C215.59 57.84 215.48 57.88 215.35 57.88H213.32C213.04 57.88 212.84 57.77 212.71 57.54L208.48 51.1V57.44C208.48 57.57 208.44 57.68 208.35 57.76C208.26 57.84 208.15 57.89 208.02 57.89H205.73C205.61 57.89 205.51 57.85 205.42 57.76L205.41 57.77Z" fill="white"/>
</g>
<defs>
<clipPath id="clip0_1_8">
<rect width="215.81" height="63" fill="white"/>
</clipPath>
</defs>
</svg>
